<?xml version="1.0" encoding="UTF-8" standalone="no"?>
<!-- Created with Inkscape ("http://www.inkscape.org/") -->
<svg xmlns:dc="http://purl.org/dc/elements/1.1/" xmlns:cc="http://creativecommons.org/ns#" xmlns:rdf="http://www.w3.org/1999/02/22-rdf-syntax-ns#" xmlns:svg="http://www.w3.org/2000/svg" xmlns="http://www.w3.org/2000/svg" xmlns:xlink="http://www.w3.org/1999/xlink" xmlns:sodipodi="http://sodipodi.sourceforge.net/DTD/sodipodi-0.dtd" xmlns:inkscape="http://www.inkscape.org/namespaces/inkscape" height="1071.116" id="svg726" inkscape:version="0.46" sodipodi:docbase="C:\tmp\svg\signs\svg\new" sodipodi:docname="trams_only.svg" sodipodi:version="0.32" width="665.38184" inkscape:output_extension="org.inkscape.output.svg.inkscape" version="1.0">
  <defs id="defs728">
    <inkscape:perspective sodipodi:type="inkscape:persp3d" inkscape:vp_x="0 : 526.18109 : 1" inkscape:vp_y="0 : 1000 : 0" inkscape:vp_z="744.09448 : 526.18109 : 1" inkscape:persp3d-origin="372.04724 : 350.78739 : 1" id="perspective19"/>
    <linearGradient id="linearGradient814">
      <stop id="stop815" offset="0" style="stop-color:#000;stop-opacity:1;"/>
      <stop id="stop816" offset="1" style="stop-color:#fff;stop-opacity:1;"/>
    </linearGradient>
    <linearGradient id="linearGradient817" x1="511.31094" x2="998.39032" xlink:href="#linearGradient814" y1="440.77533" y2="442.07254" gradientTransform="scale(0.4650913,2.1501153)" gradientUnits="userSpaceOnUse"/>
    <linearGradient inkscape:collect="always" xlink:href="#linearGradient814" id="linearGradient2399" gradientUnits="userSpaceOnUse" gradientTransform="matrix(0.4650913,0,0,2.1501153,-55.229804,-197.35937)" x1="511.31094" y1="440.77533" x2="998.39032" y2="442.07254"/>
  </defs>
  <sodipodi:namedview bordercolor="#666666" borderopacity="1.0" id="base" inkscape:cx="280.29543" inkscape:cy="515.35697" inkscape:pageopacity="0.0" inkscape:pageshadow="2" inkscape:window-height="721" inkscape:window-width="1024" inkscape:window-x="44" inkscape:window-y="45" inkscape:zoom="0.43415833" pagecolor="#ffffff" showgrid="false" inkscape:current-layer="svg726"/>
  <rect y="541.48114" x="275.68704" width="114.00788" style="font-size:12px;fill:url(#linearGradient2399);fill-opacity:1;fill-rule:evenodd;stroke:#000000;stroke-width:0.625" id="rect813" height="529.32233"/>
  <path style="font-size:12px;fill:#ffffff;fill-rule:evenodd;stroke:#000000;stroke-width:25.5" d="M 153.83655,749.13837 L 511.54538,749.13837 C 533.70538,749.13837 551.54538,766.97837 551.54538,789.13837 L 551.54538,953.44093 C 551.54538,975.60093 533.70538,993.44093 511.54538,993.44093 L 153.83655,993.44093 C 131.67655,993.44093 113.83655,975.60093 113.83655,953.44093 L 113.83655,789.13837 C 113.83655,766.97837 131.67655,749.13837 153.83655,749.13837 z" id="rect806"/>
  <path transform="matrix(1.324637,0,0,1.324637,-434.8379,-444.42357)" style="font-size:12px;fill:#ffffff;fill-rule:evenodd;stroke:#0075bd;stroke-width:5.66193008" sodipodi:type="arc" sodipodi:ry="248.32533" sodipodi:rx="248.32533" sodipodi:cy="586.66223" sodipodi:cx="579.42578" id="path586" d="M 827.75111,586.66223 A 248.32533,248.32533 0 1 1 331.10045,586.66223 A 248.32533,248.32533 0 1 1 827.75111,586.66223 z"/>
  <path transform="matrix(1.255072,0,0,1.255072,-394.5301,-403.61237)" style="font-size:12px;fill:#0075bd;fill-rule:evenodd;stroke:#0075bd;stroke-width:5.66193008" sodipodi:type="arc" sodipodi:ry="248.32533" sodipodi:rx="248.32533" sodipodi:cy="586.66223" sodipodi:cx="579.42578" id="path591" d="M 827.75111,586.66223 A 248.32533,248.32533 0 1 1 331.10045,586.66223 A 248.32533,248.32533 0 1 1 827.75111,586.66223 z"/>
  <path style="font-size:157.53239441px;font-weight:bold;line-height:100%;stroke-width:3pt;font-family:Arial" d="M 162.47527,860.78443 C 162.47527,849.29783 164.19315,839.65713 167.62892,831.86253 C 170.19291,826.11923 173.69277,820.96553 178.12852,816.40153 C 182.56422,811.83773 187.423,808.45323 192.70488,806.24813 C 199.73021,803.27393 207.83245,801.78684 217.01164,801.78672 C 233.6263,801.78684 246.92065,806.94053 256.89472,817.24763 C 266.86858,827.55503 271.85556,841.88783 271.85568,860.24603 C 271.85556,878.45043 266.90704,892.69353 257.0101,902.97513 C 247.11295,913.25683 233.8827,918.39763 217.31932,918.39763 C 200.55069,918.39763 187.21788,913.28243 177.32086,903.05203 C 167.42379,892.82173 162.47527,878.73253 162.47527,860.78443 L 162.47527,860.78443 z M 185.93591,860.01523 C 185.93588,872.78403 188.88448,882.46313 194.78172,889.05263 C 200.67889,895.64213 208.16577,898.93683 217.2424,898.93683 C 226.3189,898.93683 233.76732,895.66773 239.58769,889.12953 C 245.40789,882.59133 248.31803,872.78403 248.31812,859.70753 C 248.31803,846.78503 245.48481,837.14443 239.81845,830.78563 C 234.15192,824.42693 226.62658,821.24763 217.2424,821.24753 C 207.85809,821.24763 200.29429,824.46543 194.55096,830.90103 C 188.80756,837.33673 185.93588,847.04143 185.93591,860.01523 L 185.93591,860.01523 z M 363.6983,916.47463 L 342.08375,916.47463 L 342.08375,874.78393 C 342.08368,865.96383 341.62216,860.25893 340.69918,857.66923 C 339.77608,855.07963 338.27614,853.06683 336.19936,851.63093 C 334.12246,850.19523 331.62256,849.47723 328.69965,849.47723 C 324.95615,849.47723 321.59731,850.50283 318.62311,852.55403 C 315.64883,854.60523 313.61045,857.32313 312.50796,860.70753 C 311.40541,864.09203 310.85415,870.34823 310.85418,879.47603 L 310.85418,916.47463 L 289.23963,916.47463 L 289.23963,834.78543 L 309.31578,834.78543 L 309.31578,846.78503 C 316.44367,837.55463 325.41767,832.93943 336.23782,832.93933 C 341.0068,832.93943 345.3656,833.79843 349.31424,835.51623 C 353.26273,837.23413 356.24979,839.42633 358.27543,842.09283 C 360.30091,844.75953 361.71111,847.78503 362.50604,851.16943 C 363.30079,854.55403 363.69821,859.39993 363.6983,865.70733 L 363.6983,916.47463 z M 385.69744,916.47463 L 385.69744,803.70973 L 407.312,803.70973 L 407.312,916.47463 L 385.69744,916.47463 z M 419.15771,834.78543 L 442.15683,834.78543 L 461.69454,892.78323 L 480.77072,834.78543 L 503.15448,834.78543 L 474.30943,913.39783 L 469.15579,927.62803 C 467.25838,932.39703 465.45075,936.03793 463.73292,938.55073 C 462.01499,941.06343 460.04071,943.10173 457.81007,944.66583 C 455.57935,946.22983 452.83587,947.44773 449.57962,948.31953 C 446.3233,949.19123 442.64396,949.62713 438.54158,949.62723 C 434.38788,949.62713 430.31112,949.19123 426.31128,948.31953 L 424.38828,931.39713 C 427.77276,932.06373 430.82392,932.39703 433.54177,932.39703 C 438.5672,932.39703 442.285,930.92273 444.69519,927.97413 C 447.10533,925.02553 448.95141,921.26933 450.23344,916.70533 L 419.15771,834.78543 z" id="text807"/>
  <path style="font-size:12px;fill:#ffffff;fill-opacity:1;fill-rule:evenodd;stroke-width:3pt" id="path635" d="M 331.53997,148.17878 C 328.15205,148.17878 325.42459,150.90623 325.42459,154.29415 L 325.42459,156.46 L 325.42459,159.07178 L 324.40536,159.07178 L 325.42459,159.77251 L 325.42459,161.74727 L 325.42459,167.09821 L 280.89704,197.42028 L 280.76963,197.42028 L 280.89704,197.48397 L 326.44383,228.57046 L 289.81528,228.57046 C 283.0715,228.57046 277.33394,232.63159 274.84537,238.44424 L 90.556056,238.44424 C 83.799346,238.44424 78.389006,243.85458 78.389006,250.61127 C 78.389006,250.61127 70.585806,290.38127 70.298886,291.06191 C 66.064696,301.10591 63.737596,312.18493 63.737596,323.80464 L 63.737596,392.8574 L 88.708706,392.8574 C 89.342006,392.9581 89.893536,393.30332 90.556056,393.30332 L 109.6029,393.30332 L 109.6029,401.83934 L 136.16655,401.83934 C 136.45562,411.896 144.64128,419.99436 154.76747,419.99436 C 164.89805,419.99436 173.08612,411.90213 173.3684,401.83934 L 199.99574,401.83934 C 200.28483,411.896 208.40679,419.99436 218.53297,419.99436 C 228.66355,419.99436 236.85161,411.90213 237.13389,401.83934 L 437.60347,401.83934 C 437.89255,411.896 446.01447,419.99436 456.14069,419.99436 C 466.27127,419.99436 474.45929,411.90213 474.74161,401.83934 L 500.85935,401.83934 C 501.14843,411.896 509.27039,419.99436 519.39657,419.99436 C 529.52716,419.99436 537.77886,411.90213 538.06121,401.83934 L 566.09,401.83934 L 566.09,393.30332 L 584.11761,393.23961 C 584.79327,393.23961 585.38344,392.96207 586.02866,392.8574 L 611.76417,392.8574 L 611.76417,323.80464 C 611.76424,312.18494 609.37338,301.10592 605.13919,291.06191 L 596.34835,250.61127 C 596.34835,243.85455 590.8743,238.44424 584.11761,238.44424 L 400.40161,238.44424 C 397.92087,232.61367 392.12474,228.57046 385.36799,228.57046 L 347.78392,228.57046 L 393.33071,197.48397 L 393.33071,197.42028 L 348.22984,166.71599 L 348.22984,161.74727 L 348.22984,160.15472 L 349.82239,159.07178 L 348.22984,159.07178 L 348.22984,156.46 L 348.22984,154.29415 C 348.22983,150.90623 345.50238,148.17878 342.11447,148.17878 L 331.53997,148.17878 z M 337.01832,167.86265 L 337.33683,167.86265 L 380.65405,197.48397 L 337.14572,227.16901 L 293.57369,197.48397 L 337.01832,167.86265 z M 97.626966,261.18577 L 112.46948,261.18577 C 116.98671,261.18577 120.6233,264.82239 120.6233,269.3396 L 120.6233,302.91046 C 120.62331,307.42765 116.98671,311.06429 112.46948,311.06429 L 89.919036,311.06429 C 85.401806,311.06425 81.765216,307.42767 81.765216,302.91046 C 81.765196,302.91043 89.698636,267.13068 90.110146,266.15451 C 90.521676,265.17834 91.093186,264.27964 91.830086,263.54274 C 92.567006,262.80583 93.465716,262.23432 94.441856,261.82279 C 95.418066,261.41131 96.497656,261.18577 97.626966,261.18577 z M 145.59441,261.18577 L 164.89606,261.18577 C 169.41328,261.18577 173.04987,264.82238 173.04989,269.3396 L 173.04989,374.76608 C 173.04989,379.28331 169.41326,382.91993 164.89606,382.91992 L 145.59441,382.91992 C 141.07719,382.91992 137.44057,379.28332 137.44057,374.76608 L 137.44057,269.3396 C 137.44057,264.82239 141.07719,261.18577 145.59441,261.18577 z M 191.0775,261.18577 L 210.37914,261.18577 C 214.89637,261.18577 218.53295,264.82238 218.53297,269.3396 L 218.53297,374.76608 C 218.53297,379.28331 214.89634,382.91993 210.37914,382.91992 L 191.0775,382.91992 C 186.56027,382.91992 182.92365,379.28332 182.92366,374.76608 L 182.92366,269.3396 C 182.92366,264.82239 186.56027,261.18577 191.0775,261.18577 z M 240.956,261.18577 L 284.46433,261.18577 C 288.98155,261.18577 292.61817,264.82238 292.61817,269.3396 L 292.61817,302.91046 C 292.61817,307.42767 288.98155,311.06425 284.46433,311.06429 L 240.956,311.06429 C 236.43878,311.06429 232.80217,307.42765 232.80218,302.91046 L 232.80218,269.3396 C 232.80218,264.82239 236.43878,261.18577 240.956,261.18577 z M 315.42341,261.18577 L 358.93174,261.18577 C 363.44897,261.18577 367.08557,264.82238 367.08557,269.3396 L 367.08557,302.91046 C 367.08557,307.42767 363.44897,311.06425 358.93174,311.06429 L 315.42341,311.06429 C 310.90619,311.06429 307.26957,307.42765 307.26958,302.91046 L 307.26958,269.3396 C 307.26958,264.82239 310.90618,261.18577 315.42341,261.18577 z M 388.80788,261.18577 L 432.31622,261.18577 C 436.83344,261.18577 440.47006,264.82238 440.47005,269.3396 L 440.47005,302.91046 C 440.47005,307.42767 436.83344,311.06425 432.31622,311.06429 L 388.80788,311.06429 C 384.29066,311.06429 380.65405,307.42765 380.65405,302.91046 L 380.65405,269.3396 C 380.65405,264.82239 384.29066,261.18577 388.80788,261.18577 z M 464.35822,261.18577 L 483.65987,261.18577 C 488.17709,261.18577 491.81368,264.82238 491.81369,269.3396 L 491.81369,374.76608 C 491.81369,379.28331 488.17708,382.91993 483.65987,382.91992 L 464.35822,382.91992 C 459.841,382.91992 456.20439,379.28332 456.20439,374.76608 L 456.20439,269.3396 C 456.20439,264.82239 459.841,261.18577 464.35822,261.18577 z M 509.84131,261.18577 L 529.14295,261.18577 C 533.66018,261.18577 537.29677,264.82238 537.29678,269.3396 L 537.29678,374.76608 C 537.29678,379.28331 533.66016,382.91993 529.14295,382.91992 L 509.84131,382.91992 C 505.32408,382.91992 501.68748,379.28332 501.68747,374.76608 L 501.68747,269.3396 C 501.68747,264.82239 505.32408,261.18577 509.84131,261.18577 z M 561.18495,261.18577 L 576.09117,261.18577 C 577.22048,261.18577 578.30007,261.41131 579.27627,261.82279 C 580.25242,262.23432 581.08743,262.80583 581.82433,263.54274 C 582.56124,264.27964 583.19648,265.17834 583.60799,266.15451 C 584.01949,267.13068 591.95294,302.91043 591.95292,302.91046 C 591.95292,307.42767 588.31633,311.06425 583.79909,311.06429 L 561.18495,311.06429 C 556.66773,311.06429 553.03114,307.42765 553.03112,302.91046 L 553.03112,269.3396 C 553.03112,264.82239 556.66774,261.18577 561.18495,261.18577 z"/>
  <metadata>
    <rdf:RDF>
      <cc:Work>
        <dc:format>image/svg+xml</dc:format>
        <dc:type rdf:resource="http://purl.org/dc/dcmitype/StillImage"/>
        <cc:license rdf:resource="http://creativecommons.org/licenses/publicdomain/"/>
        <dc:publisher>
          <cc:Agent rdf:about="http://openclipart.org/">
            <dc:title>Open Clip Art Library</dc:title>
          </cc:Agent>
        </dc:publisher>
        <dc:title>Roadsign trams ony</dc:title>
        <dc:date>2010-03-08T08:17:27</dc:date>
        <dc:description>Roadsign by John Cliff. From OCAL 0.18 release.</dc:description>
        <dc:source>http://openclipart.org/detail/30181/roadsign-trams-ony-by-anonymous</dc:source>
        <dc:creator>
          <cc:Agent>
            <dc:title>Anonymous</dc:title>
          </cc:Agent>
        </dc:creator>
        <dc:subject>
          <rdf:Bag>
            <rdf:li>attention</rdf:li>
            <rdf:li>clip art</rdf:li>
            <rdf:li>clipart</rdf:li>
            <rdf:li>roadsign</rdf:li>
            <rdf:li>sign</rdf:li>
            <rdf:li>streetcar</rdf:li>
            <rdf:li>tram</rdf:li>
            <rdf:li>transportation</rdf:li>
          </rdf:Bag>
        </dc:subject>
      </cc:Work>
      <cc:License rdf:about="http://creativecommons.org/licenses/publicdomain/">
        <cc:permits rdf:resource="http://creativecommons.org/ns#Reproduction"/>
        <cc:permits rdf:resource="http://creativecommons.org/ns#Distribution"/>
        <cc:permits rdf:resource="http://creativecommons.org/ns#DerivativeWorks"/>
      </cc:License>
    </rdf:RDF>
  </metadata>
</svg>
